# xmcd CD database file
#
# Track frame offsets:
#	150
#	29962
#	54443
#	79737
#	108557
#	131751
#	155342
#	195729
#
# Disc length: 3015 seconds
#
# Revision: 0
# Processed by: cddbd v1.5.2PL0 Copyright (c) Steve Scherf et al.
# Submitted via: CDex 1.51
#
DISCID=6d0bc508
DTITLE=Wolfgang Lackerschmid Quartet - Hurry Up And Wait
DYEAR=2007
DGENRE=Jazz
TTITLE0=Chorinho Pra Banda
TTITLE1=Silvans Delight
TTITLE2=Hurry Up And Wait
TTITLE3=Bluerangoutang
TTITLE4=Easy To Leave
TTITLE5=Mountain King
TTITLE6=No But For Me
TTITLE7=Neu-Brandenburg
EXTD=YEAR: 2007
EXTT0=
EXTT1=
EXTT2=
EXTT3=
EXTT4=
EXTT5=
EXTT6=
EXTT7=
PLAYORDER=
